<mxfile host="app.diagrams.net" agent="Mozilla/5.0 (Macintosh; Intel Mac OS X 10_15_7) AppleWebKit/537.36 (KHTML, like Gecko) Chrome/137.0.0.0 Safari/537.36" version="27.2.0">
  <diagram id="XD6DTGgF6tPtcIzRqMsH" name="Page-1">
    <mxGraphModel dx="1018" dy="1755" grid="1" gridSize="10" guides="1" tooltips="1" connect="1" arrows="1" fold="1" page="1" pageScale="1" pageWidth="850" pageHeight="1100" math="0" shadow="0">
      <root>
        <mxCell id="0" />
        <mxCell id="1" parent="0" />
        <mxCell id="oIU-8yJtEQ9u1oQCUrEM-1" value="application" style="rounded=1;whiteSpace=wrap;html=1;" vertex="1" parent="1">
          <mxGeometry x="110" y="-110" width="120" height="60" as="geometry" />
        </mxCell>
        <mxCell id="oIU-8yJtEQ9u1oQCUrEM-2" value="application" style="rounded=1;whiteSpace=wrap;html=1;" vertex="1" parent="1">
          <mxGeometry x="110" y="30" width="120" height="60" as="geometry" />
        </mxCell>
        <mxCell id="oIU-8yJtEQ9u1oQCUrEM-4" value="mongo-adapter" style="rounded=1;whiteSpace=wrap;html=1;fillColor=#FFCCCC;" vertex="1" parent="1">
          <mxGeometry x="310" y="-180" width="120" height="60" as="geometry" />
        </mxCell>
        <mxCell id="oIU-8yJtEQ9u1oQCUrEM-5" value="mongo-adapter" style="rounded=1;whiteSpace=wrap;html=1;fillColor=#FFCCCC;" vertex="1" parent="1">
          <mxGeometry x="310" y="-100" width="120" height="60" as="geometry" />
        </mxCell>
        <mxCell id="oIU-8yJtEQ9u1oQCUrEM-6" value="mongo-adapter" style="rounded=1;whiteSpace=wrap;html=1;fillColor=#FFCCCC;" vertex="1" parent="1">
          <mxGeometry x="310" y="20" width="120" height="60" as="geometry" />
        </mxCell>
        <mxCell id="oIU-8yJtEQ9u1oQCUrEM-7" value="" style="endArrow=classic;html=1;rounded=0;" edge="1" parent="1">
          <mxGeometry width="50" height="50" relative="1" as="geometry">
            <mxPoint x="240" y="-80.5" as="sourcePoint" />
            <mxPoint x="300" y="-80" as="targetPoint" />
          </mxGeometry>
        </mxCell>
        <mxCell id="oIU-8yJtEQ9u1oQCUrEM-8" value="MongoDB&lt;div&gt;Primary&lt;/div&gt;" style="shape=cylinder3;whiteSpace=wrap;html=1;boundedLbl=1;backgroundOutline=1;size=15;" vertex="1" parent="1">
          <mxGeometry x="550" y="-160" width="82.5" height="110" as="geometry" />
        </mxCell>
        <mxCell id="oIU-8yJtEQ9u1oQCUrEM-9" value="" style="endArrow=classic;html=1;rounded=0;entryX=-0.012;entryY=0.595;entryDx=0;entryDy=0;entryPerimeter=0;fillColor=#0000FF;strokeColor=#0000FF;" edge="1" parent="1" target="oIU-8yJtEQ9u1oQCUrEM-8">
          <mxGeometry width="50" height="50" relative="1" as="geometry">
            <mxPoint x="440" y="49.5" as="sourcePoint" />
            <mxPoint x="520" y="49.5" as="targetPoint" />
          </mxGeometry>
        </mxCell>
        <mxCell id="oIU-8yJtEQ9u1oQCUrEM-10" value="MongoDB&lt;div&gt;Secondary&lt;/div&gt;" style="shape=cylinder3;whiteSpace=wrap;html=1;boundedLbl=1;backgroundOutline=1;size=15;" vertex="1" parent="1">
          <mxGeometry x="690" y="-160" width="82.5" height="110" as="geometry" />
        </mxCell>
        <mxCell id="oIU-8yJtEQ9u1oQCUrEM-11" value="MongoDB&lt;div&gt;Secondary&lt;/div&gt;" style="shape=cylinder3;whiteSpace=wrap;html=1;boundedLbl=1;backgroundOutline=1;size=15;" vertex="1" parent="1">
          <mxGeometry x="550" y="30" width="82.5" height="110" as="geometry" />
        </mxCell>
        <mxCell id="oIU-8yJtEQ9u1oQCUrEM-12" value="mongo-adapter" style="rounded=1;whiteSpace=wrap;html=1;fillColor=#FFCCCC;" vertex="1" parent="1">
          <mxGeometry x="310" y="100" width="120" height="60" as="geometry" />
        </mxCell>
        <mxCell id="oIU-8yJtEQ9u1oQCUrEM-13" value="" style="endArrow=none;html=1;rounded=0;" edge="1" parent="1">
          <mxGeometry width="50" height="50" relative="1" as="geometry">
            <mxPoint x="70" as="sourcePoint" />
            <mxPoint x="820" as="targetPoint" />
          </mxGeometry>
        </mxCell>
        <mxCell id="oIU-8yJtEQ9u1oQCUrEM-14" value="&lt;font style=&quot;font-size: 18px;&quot;&gt;Region 1&lt;/font&gt;" style="text;html=1;align=center;verticalAlign=middle;whiteSpace=wrap;rounded=0;" vertex="1" parent="1">
          <mxGeometry x="40" y="-200" width="120" height="30" as="geometry" />
        </mxCell>
        <mxCell id="oIU-8yJtEQ9u1oQCUrEM-15" value="&lt;font style=&quot;font-size: 18px;&quot;&gt;Region 2&lt;/font&gt;" style="text;html=1;align=center;verticalAlign=middle;whiteSpace=wrap;rounded=0;" vertex="1" parent="1">
          <mxGeometry x="40" y="150" width="120" height="30" as="geometry" />
        </mxCell>
        <mxCell id="oIU-8yJtEQ9u1oQCUrEM-17" value="" style="endArrow=classic;html=1;rounded=0;" edge="1" parent="1">
          <mxGeometry width="50" height="50" relative="1" as="geometry">
            <mxPoint x="240" y="59.5" as="sourcePoint" />
            <mxPoint x="300" y="60" as="targetPoint" />
          </mxGeometry>
        </mxCell>
        <mxCell id="oIU-8yJtEQ9u1oQCUrEM-18" value="&lt;font style=&quot;font-size: 14px;&quot;&gt;Read/Write&lt;/font&gt;" style="text;html=1;align=center;verticalAlign=middle;whiteSpace=wrap;rounded=0;" vertex="1" parent="1">
          <mxGeometry x="240" y="-130" width="60" height="30" as="geometry" />
        </mxCell>
        <mxCell id="oIU-8yJtEQ9u1oQCUrEM-19" value="&lt;font style=&quot;font-size: 14px;&quot;&gt;Read/Write&lt;/font&gt;" style="text;html=1;align=center;verticalAlign=middle;whiteSpace=wrap;rounded=0;" vertex="1" parent="1">
          <mxGeometry x="240" y="90" width="60" height="30" as="geometry" />
        </mxCell>
        <mxCell id="oIU-8yJtEQ9u1oQCUrEM-20" value="" style="endArrow=classic;html=1;rounded=0;exitX=1;exitY=0;exitDx=0;exitDy=0;fillColor=#0000FF;strokeColor=#0000FF;" edge="1" parent="1" source="oIU-8yJtEQ9u1oQCUrEM-5" target="oIU-8yJtEQ9u1oQCUrEM-8">
          <mxGeometry width="50" height="50" relative="1" as="geometry">
            <mxPoint x="600" y="164.5" as="sourcePoint" />
            <mxPoint x="709" y="20" as="targetPoint" />
          </mxGeometry>
        </mxCell>
        <mxCell id="oIU-8yJtEQ9u1oQCUrEM-21" value="&lt;font style=&quot;font-size: 14px; color: rgb(0, 0, 255);&quot;&gt;Write&lt;/font&gt;" style="text;html=1;align=center;verticalAlign=middle;whiteSpace=wrap;rounded=0;" vertex="1" parent="1">
          <mxGeometry x="460" y="-150" width="60" height="30" as="geometry" />
        </mxCell>
        <mxCell id="oIU-8yJtEQ9u1oQCUrEM-22" value="" style="endArrow=classic;html=1;rounded=0;entryX=0.012;entryY=0.805;entryDx=0;entryDy=0;entryPerimeter=0;fillColor=#0000FF;strokeColor=#FF0000;exitX=1;exitY=0.75;exitDx=0;exitDy=0;" edge="1" parent="1" source="oIU-8yJtEQ9u1oQCUrEM-5" target="oIU-8yJtEQ9u1oQCUrEM-10">
          <mxGeometry width="50" height="50" relative="1" as="geometry">
            <mxPoint x="620" y="143.5" as="sourcePoint" />
            <mxPoint x="729" y="-1" as="targetPoint" />
          </mxGeometry>
        </mxCell>
        <mxCell id="oIU-8yJtEQ9u1oQCUrEM-23" value="" style="endArrow=classic;html=1;rounded=0;fillColor=#0000FF;strokeColor=#FF0000;entryX=0;entryY=0.5;entryDx=0;entryDy=0;entryPerimeter=0;" edge="1" parent="1" target="oIU-8yJtEQ9u1oQCUrEM-11">
          <mxGeometry width="50" height="50" relative="1" as="geometry">
            <mxPoint x="440" y="80" as="sourcePoint" />
            <mxPoint x="730" y="-10" as="targetPoint" />
          </mxGeometry>
        </mxCell>
        <mxCell id="oIU-8yJtEQ9u1oQCUrEM-24" value="&lt;font style=&quot;font-size: 14px;&quot;&gt;Read&lt;/font&gt;" style="text;html=1;align=center;verticalAlign=middle;whiteSpace=wrap;rounded=0;fontColor=#FF0000;" vertex="1" parent="1">
          <mxGeometry x="470" y="45" width="60" height="30" as="geometry" />
        </mxCell>
      </root>
    </mxGraphModel>
  </diagram>
</mxfile>
